<?xml version="1.0" standalone="no"?>
<!DOCTYPE svg PUBLIC "-//W3C//DTD SVG 20010904//EN"
 "http://www.w3.org/TR/2001/REC-SVG-20010904/DTD/svg10.dtd">
<svg version="1.0" xmlns="http://www.w3.org/2000/svg"
 width="200.000000px" height="90.000000" viewBox="0 -26 1280.000000 640.000000"
 preserveAspectRatio="xMidYMid meet">
<metadata>
Created by potrace 1.15, written by Peter Selinger 2001-2017
</metadata>
<g transform="translate(0.000000,640.000000) scale(0.100000,-0.100000)"
fill="#000000" stroke="none">
<path d="M3360 6015 c-223 -45 -348 -174 -358 -370 -4 -67 0 -92 20 -151 29
-83 91 -183 177 -282 l61 -71 6 -459 c4 -254 2 -462 -2 -464 -5 -3 -97 -1
-204 3 -377 17 -1482 10 -1604 -10 -255 -43 -517 -220 -666 -453 l-55 -85 -53
-8 c-30 -3 -56 -5 -58 -2 -3 2 2 46 10 98 84 523 84 1387 1 1929 -17 112 -66
310 -76 310 -11 0 -47 -143 -68 -275 -84 -503 -93 -1282 -21 -1855 11 -85 22
-169 26 -187 l6 -31 -58 -12 c-160 -32 -315 -98 -396 -168 l-48 -41 45 -39
c24 -21 71 -53 103 -70 68 -36 217 -87 285 -97 26 -4 49 -10 51 -14 3 -4 -2
-52 -9 -106 -74 -529 -69 -1384 10 -1870 18 -110 66 -305 75 -305 10 0 57 197
75 310 75 483 84 1236 19 1785 -8 72 -18 140 -21 153 -4 19 -1 22 25 22 30 0
42 -14 42 -49 0 -9 18 -54 39 -99 71 -145 141 -195 451 -317 473 -186 1145
-407 1618 -531 l144 -37 -66 -62 c-65 -60 -66 -62 -66 -112 0 -41 5 -58 27
-84 38 -45 132 -87 215 -95 69 -7 86 -17 46 -28 -38 -9 -143 -83 -203 -142
-117 -116 -194 -272 -216 -442 -18 -143 11 -296 84 -436 63 -122 190 -246 317
-309 122 -60 207 -80 340 -79 207 0 365 67 516 217 77 76 98 105 137 185 26
52 54 122 62 155 51 198 14 415 -103 594 -23 36 -42 69 -42 74 0 59 124 109
415 168 108 21 118 22 550 13 538 -11 1247 -11 1298 -1 33 7 37 11 37 38 0 53
-29 101 -110 180 -44 42 -80 82 -80 88 0 14 2 14 325 71 940 165 2028 383
3542 711 304 65 555 119 557 119 2 0 20 -27 40 -59 52 -84 154 -175 251 -222
189 -91 391 -105 434 -28 20 35 7 95 -29 131 -28 28 -30 28 -147 28 -167 0
-281 34 -337 100 -25 31 -43 76 -34 86 10 10 233 55 463 94 420 71 808 155
995 214 74 24 75 25 78 60 2 24 -5 49 -22 79 -47 79 -48 78 144 98 216 21 350
65 405 131 l27 32 -38 14 c-70 24 -176 40 -374 57 -107 8 -211 19 -230 23
l-34 8 2 89 c2 50 15 248 29 440 27 359 38 921 20 1026 -7 43 -11 48 -60 72
-256 127 -577 109 -905 -50 -284 -138 -491 -396 -626 -780 -41 -118 -58 -148
-157 -269 -39 -49 -122 -152 -184 -229 -111 -139 -186 -219 -228 -242 -36 -20
-152 -15 -373 17 -711 103 -1408 170 -1768 170 l-89 0 -33 -38 c-41 -48 -131
-97 -215 -117 -118 -28 -380 -12 -425 26 -8 6 -27 55 -44 108 -16 53 -37 106
-45 119 l-16 22 -570 0 -569 0 2 411 3 411 150 87 c83 47 175 105 205 128 114
85 203 196 235 294 20 60 12 79 -53 120 -94 60 -226 88 -731 159 -456 63 -463
64 -926 100 -216 16 -481 43 -595 60 -416 62 -652 75 -800 45z m780 -124 c96
-11 315 -34 485 -51 171 -16 369 -37 440 -46 200 -23 1016 -142 1102 -160 118
-24 216 -81 192 -111 -18 -21 -68 -15 -123 16 -105 59 -199 75 -941 161 -611
71 -666 76 -1004 95 -582 33 -884 14 -1083 -70 -31 -13 -21 22 19 66 57 63
155 104 293 122 77 11 454 -3 620 -22z m7820 -486 c120 -32 116 -27 123 -157
16 -279 7 -550 -41 -1188 l-17 -225 -90 3 c-49 2 -205 10 -345 19 -457 28
-677 0 -852 -107 -38 -24 -48 -27 -48 -14 0 14 -10 16 -62 11 -35 -3 -106 -14
-158 -26 -52 -11 -201 -34 -330 -51 -129 -17 -293 -45 -365 -62 -208 -50 -329
-51 -2495 -14 -509 9 -1034 19 -1167 22 l-243 6 0 242 0 241 148 0 c81 0 194
7 252 15 129 18 330 18 389 1 32 -9 67 -35 135 -99 105 -100 178 -140 326
-179 134 -36 338 -38 454 -5 100 29 197 76 251 124 l42 37 359 -29 c612 -50
1698 -151 1714 -159 8 -5 17 -23 20 -42 4 -29 9 -34 29 -31 13 1 36 16 51 32
33 35 48 36 195 16 147 -21 259 -29 293 -21 58 12 89 143 102 430 5 116 15
246 21 290 38 278 220 588 435 741 117 83 299 157 464 189 99 19 321 13 410
-10z m-6920 -180 c23 -47 25 -61 29 -245 2 -107 -2 -288 -9 -401 -9 -160 -9
-219 0 -263 15 -73 8 -104 -27 -112 -36 -9 -75 14 -84 49 -5 17 -1 67 7 120
13 74 15 166 12 467 -2 303 0 381 11 408 7 18 19 31 25 29 6 -1 22 -25 36 -52z
m-1564 -22 c31 -20 31 -57 -1 -95 -27 -32 -29 -49 -15 -118 6 -25 14 -196 19
-380 9 -306 8 -338 -7 -370 -19 -40 -54 -51 -82 -25 -31 28 -44 211 -36 490
17 534 15 499 34 513 19 14 52 9 88 -15z m1412 -95 c14 -14 16 -67 2 -88 -23
-37 -64 39 -46 86 7 17 28 18 44 2z m-1249 -94 c12 -15 21 -41 21 -58 0 -27
-6 -35 -35 -49 -20 -9 -40 -27 -44 -39 -9 -22 -10 -21 -25 14 -16 37 -21 113
-10 142 10 27 69 20 93 -10z m1252 -102 c9 -44 9 -92 0 -207 -6 -82 -12 -226
-12 -320 -1 -163 -2 -168 -15 -125 -12 35 -15 116 -16 360 -2 299 2 367 22
355 5 -3 14 -31 21 -63z m898 -284 c0 -178 -4 -345 -7 -373 l-7 -49 -315 0
-315 1 -7 54 c-6 46 7 458 14 464 2 1 100 34 219 73 119 39 256 89 305 110 49
22 95 40 102 41 9 1 12 -69 11 -321z m-1854 178 c50 -8 149 -24 220 -36 72
-11 145 -23 163 -26 l34 -5 -74 -56 c-126 -95 -255 -183 -269 -183 -22 0 -112
77 -232 200 l-118 120 93 0 c51 0 134 -6 183 -14z m845 -3 c0 -10 -5 -25 -10
-33 -9 -13 -12 -12 -25 4 -22 29 -18 46 10 46 17 0 25 -5 25 -17z m-132 -115
c-18 -49 -69 -152 -195 -395 -53 -104 -72 -115 -149 -94 -55 15 -78 34 -124
101 l-40 59 46 43 c25 24 126 109 223 190 164 137 179 147 218 148 l41 0 -20
-52z m123 0 c18 -56 15 -468 -4 -480 -14 -9 -202 -10 -234 -2 -13 4 -23 11
-23 17 0 6 49 110 109 231 60 122 113 234 116 249 10 38 20 34 36 -15z m-1174
-80 c6 -69 -8 -133 -31 -141 -13 -5 -26 87 -26 188 0 52 8 61 33 36 13 -13 21
-38 24 -83z m817 70 c-35 -39 -104 -103 -159 -145 -54 -41 -176 -115 -182
-110 -8 8 110 107 237 197 69 50 127 90 129 90 1 0 -10 -15 -25 -32z m-540
-158 c39 -35 64 -90 41 -90 -19 0 -50 35 -65 71 -7 16 -16 29 -21 29 -5 0 -9
5 -9 10 0 18 18 11 54 -20z m-153 -78 c11 -26 28 -64 39 -85 l19 -39 -45 -44
c-25 -24 -50 -44 -55 -44 -5 0 -11 12 -15 28 -3 15 -8 34 -10 42 -3 8 -2 59 2
112 6 93 7 97 26 87 11 -6 29 -32 39 -57z m97 -12 c26 -39 28 -50 7 -50 -9 0
-20 12 -26 28 -6 15 -16 35 -21 46 -17 32 14 13 40 -24z m-231 -27 c11 -28 14
-57 10 -112 -6 -79 -16 -101 -36 -77 -20 24 -20 226 0 226 5 0 17 -17 26 -37z
m423 -39 c0 -24 -19 -54 -35 -54 -10 0 -15 11 -15 35 0 31 3 35 25 35 16 0 25
-6 25 -16z m6523 -34 c-2 -14 -6 -129 -11 -257 -4 -127 -10 -234 -12 -236 -12
-9 -305 22 -362 39 -14 4 -1 24 60 97 42 51 126 159 187 240 108 145 143 175
138 117z m-6628 -40 c0 -7 -6 -15 -12 -17 -8 -3 -13 4 -13 17 0 13 5 20 13 18
6 -3 12 -11 12 -18z m237 -50 c10 -19 16 -36 13 -38 -6 -7 -71 -5 -95 3 -11 4
-26 18 -31 32 -8 21 -6 30 12 49 22 23 23 24 53 6 17 -10 39 -33 48 -52z
m-304 -22 c3 -15 -4 -18 -42 -18 -25 0 -46 4 -46 8 0 34 82 42 88 10z m-1712
-116 c15 -70 20 -77 50 -77 32 0 54 31 54 78 0 26 2 27 53 27 l53 0 10 -42
c10 -47 30 -64 66 -55 20 5 27 16 34 49 9 41 11 43 44 43 33 0 36 -2 46 -45
10 -40 14 -45 39 -45 28 0 33 5 57 60 10 22 20 30 38 30 20 0 27 -8 40 -45 14
-39 19 -45 45 -45 23 0 33 8 55 45 l26 45 216 0 216 1 6 -29 c3 -16 6 -120 6
-230 l0 -200 -994 7 c-547 4 -1002 9 -1012 10 -28 4 -33 31 -33 204 l-1 163
56 26 c31 14 76 28 100 31 l44 5 0 -51 c0 -52 8 -62 51 -62 15 0 27 15 44 55
18 40 30 55 45 55 15 0 20 -7 20 -29 0 -37 20 -53 62 -49 31 3 33 6 38 48 5
42 7 45 37 48 28 3 33 0 38 -25 13 -60 24 -74 53 -71 20 2 28 9 30 28 7 67 10
71 50 68 l37 -3 3 -52 c2 -31 8 -53 16 -56 27 -11 61 18 79 68 10 27 23 53 30
57 18 11 46 -10 53 -40z m2912 25 c18 -21 24 -523 14 -1222 -10 -634 -9 -672
8 -711 10 -23 23 -45 29 -48 22 -14 41 59 41 158 l0 95 73 -20 c39 -11 135
-45 212 -75 77 -31 188 -74 246 -96 l107 -41 4 -59 c3 -38 10 -65 22 -76 17
-16 19 -15 50 21 l32 39 85 -40 c46 -21 101 -53 121 -70 33 -29 75 -98 66
-108 -2 -2 -74 7 -159 21 -295 45 -645 80 -1079 107 -292 17 -1248 16 -1505
-3 -315 -22 -435 -17 -435 18 0 9 22 38 48 63 37 35 76 58 161 94 62 26 117
44 121 39 5 -4 10 -21 12 -38 4 -38 33 -40 58 -5 17 23 18 52 10 455 -5 237
-12 585 -15 775 -9 432 5 658 44 719 11 18 48 6 62 -21 12 -23 18 -394 20
-1273 2 -577 6 -618 63 -542 18 24 19 32 8 90 -13 72 -17 1204 -5 1553 6 192
7 198 22 164 14 -31 16 -125 16 -810 0 -747 4 -871 31 -963 8 -26 25 -9 54 53
30 64 33 64 370 106 132 16 639 31 683 20 20 -5 29 -16 39 -53 18 -62 34 -65
58 -9 20 44 21 65 20 862 0 716 2 815 14 805 38 -32 39 -65 33 -741 -4 -360
-11 -756 -18 -880 -10 -209 -9 -229 8 -279 10 -29 23 -54 28 -55 30 -4 34 74
36 709 1 352 4 782 8 955 l6 314 25 7 c36 10 37 10 48 -4z m-1090 -119 c97
-171 172 -322 172 -349 0 -5 -99 -9 -219 -9 -199 0 -220 2 -227 18 -4 9 -9
113 -12 231 -3 173 -2 215 9 222 8 5 57 9 110 9 l96 0 71 -122z m126 35 c95
-107 126 -164 126 -233 0 -27 -4 -50 -10 -50 -14 0 -85 93 -125 164 -29 51
-85 185 -85 201 0 17 26 -6 94 -82z m286 70 c0 -21 -82 -192 -92 -193 -19 -1
-77 65 -108 124 -44 83 -41 86 98 86 90 0 102 -2 102 -17z m410 5 c1 -7 5 -58
10 -113 10 -113 -1 -268 -26 -387 l-17 -78 -115 0 c-101 0 -113 2 -102 15 9
11 33 15 89 15 47 0 84 5 95 13 16 12 16 14 -3 31 -27 24 -81 35 -173 36 -91
0 -116 16 -173 109 l-35 59 25 76 c33 102 78 189 111 215 24 19 40 21 170 21
108 0 144 -3 144 -12z m998 -3 l22 -5 0 -246 0 -247 -307 8 c-170 4 -313 8
-319 8 -7 0 -14 32 -18 81 -7 90 -8 400 -2 407 6 6 596 0 624 -6z m-4623 -170
c11 -25 15 -76 14 -197 -1 -90 2 -328 6 -530 5 -255 5 -368 -3 -368 -21 0
-138 59 -187 94 -64 46 -141 147 -160 210 -59 197 86 648 258 799 41 36 55 34
72 -8z m10755 -226 c184 -6 416 -14 515 -17 l180 -7 -85 -27 c-103 -33 -170
-44 -360 -58 -80 -7 -172 -15 -205 -20 -67 -9 -85 -3 -105 34 -18 35 -44 33
-71 -6 l-23 -31 -211 6 c-116 4 -267 13 -335 21 -69 8 -165 18 -213 21 -58 5
-95 13 -108 24 -22 18 -18 45 9 56 61 25 328 26 1012 4z m-7593 -11 c32 -35
33 -60 2 -68 -30 -9 -76 -2 -85 11 -9 15 27 79 45 79 10 0 27 -10 38 -22z
m-2112 -108 c435 -6 846 -14 915 -20 69 -5 135 -10 148 -10 13 0 21 -4 18 -9
-11 -17 -63 -19 -151 -4 -93 15 -294 15 -1467 -3 l-407 -7 -6 26 c-12 44 0 50
84 43 42 -4 432 -11 866 -16z m1644 -22 c66 -11 66 -11 36 -24 -32 -14 -133
-17 -175 -5 l-24 7 24 17 c29 20 51 21 139 5z m240 -7 c11 -7 10 -11 -7 -20
-25 -13 -109 -15 -116 -2 -13 21 94 40 123 22z m326 -10 c10 -17 -30 -30 -73
-24 -26 4 -42 11 -42 19 0 16 105 20 115 5z m910 -20 c-9 -16 -63 -23 -115
-16 -75 10 -50 25 41 25 47 0 78 -4 74 -9z m390 -10 c27 -6 -16 -9 -135 -9
-160 0 -172 1 -145 14 23 11 54 13 135 9 58 -4 123 -10 145 -14z m380 3 c39
-4 77 -11 85 -16 10 -6 4 -8 -19 -4 -18 3 -90 6 -159 6 -75 0 -122 4 -116 9
15 15 46 20 94 16 25 -3 77 -7 115 -11z m245 -4 c0 -5 -18 -10 -41 -10 -24 0
-38 4 -34 10 3 6 22 10 41 10 19 0 34 -4 34 -10z m95 0 c-3 -5 -15 -10 -26
-10 -10 0 -19 5 -19 10 0 6 12 10 26 10 14 0 23 -4 19 -10z m-5099 -41 c4 -7
12 -37 18 -68 l11 -56 80 4 c44 1 86 8 93 13 6 6 12 30 12 54 0 23 4 45 9 49
17 10 41 -26 41 -60 0 -41 10 -48 74 -51 63 -3 91 13 112 67 15 37 49 68 61
55 3 -3 8 -27 11 -53 3 -26 10 -51 16 -55 16 -11 131 -10 161 2 24 9 26 14 23
53 l-3 42 617 3 617 2 5 -52 c3 -29 13 -246 21 -483 9 -236 19 -471 22 -521
l6 -92 -79 -36 c-44 -20 -96 -44 -116 -55 l-37 -19 -323 78 c-707 171 -1104
296 -1443 454 l-95 45 -2 173 c-4 210 -1 372 7 456 l7 62 33 0 c19 0 37 -5 41
-11z m2712 -17 c3 -3 -228 -464 -291 -582 l-52 -95 -13 65 c-16 73 -22 479 -9
570 l8 55 177 -6 c97 -3 178 -7 180 -7z m219 -40 c14 -15 59 -94 100 -176 41
-81 96 -183 122 -225 94 -149 103 -174 95 -250 -7 -58 -8 -62 -14 -31 -10 55
-184 394 -260 505 -26 38 -40 75 -55 139 -6 27 -11 21 -81 -95 -127 -208 -340
-571 -368 -626 -14 -29 -26 -66 -26 -83 0 -27 3 -30 33 -30 17 0 70 7 117 15
161 27 281 35 420 27 153 -10 160 -7 200 72 l21 41 -6 -35 c-4 -19 -13 -50
-21 -67 l-13 -33 -103 6 c-123 8 -250 -5 -527 -52 -112 -19 -206 -33 -209 -29
-11 10 19 139 47 199 16 33 59 113 97 176 38 64 121 222 184 353 83 170 120
237 132 237 9 0 20 4 23 10 8 13 61 -14 92 -48z m291 -59 c87 -140 102 -176
102 -256 0 -39 -7 -83 -15 -104 l-16 -37 -24 29 c-51 64 -171 278 -229 410
l-25 55 73 0 73 0 61 -97z m172 82 c0 -41 -26 -145 -36 -145 -33 0 -87 70
-108 138 -7 21 -6 22 68 22 62 0 76 -3 76 -15z m3250 -20 c236 -12 478 -17
820 -15 267 1 607 2 755 2 149 0 486 -7 750 -17 265 -10 538 -15 609 -11 l129
6 -6 -37 c-6 -34 -62 -126 -119 -196 -23 -27 -63 -35 -1948 -412 -1059 -212
-2021 -401 -2139 -420 -276 -46 -378 -68 -529 -116 -195 -62 -308 -72 -397
-35 l-32 14 5 613 c3 553 5 616 20 632 16 18 50 19 882 14 621 -3 960 -9 1200
-22z m-2303 9 l120 -7 -5 -396 c-2 -218 -7 -485 -11 -593 l-6 -197 -155 61
c-210 82 -386 146 -437 158 l-43 11 0 484 0 485 208 0 c115 0 263 -3 329 -6z
m6473 -15 c0 -19 -50 -41 -159 -69 -113 -28 -332 -70 -367 -70 -23 0 -16 36
13 71 36 42 82 60 173 68 92 8 340 8 340 0z m-701 -16 c22 -6 23 -9 18 -63
-10 -95 -19 -108 -74 -115 -26 -3 -97 -18 -156 -32 -59 -14 -111 -23 -114 -19
-16 16 144 201 192 222 32 14 95 18 134 7z m-6657 -107 c3 -13 3 -49 0 -80 -4
-51 -6 -55 -23 -45 -22 11 -23 29 -7 98 12 55 23 65 30 27z m-11 -294 c11 -34
6 -299 -6 -311 -9 -9 -48 35 -66 74 -24 51 -25 163 -3 251 l17 65 23 -22 c13
-12 29 -38 35 -57z m-102 -316 c6 -7 23 -36 36 -62 20 -39 22 -51 12 -61 -16
-16 -87 -5 -94 14 -7 17 17 123 27 123 4 0 13 -6 19 -14z m451 -771 c378 -30
379 -30 25 -37 -181 -4 -528 -12 -770 -19 -280 -8 -566 -9 -788 -4 -343 7
-349 8 -375 30 l-26 23 114 6 c489 29 1466 30 1820 1z"/>
<path d="M2125 3421 c-38 -6 -40 -8 -47 -50 -4 -25 -12 -49 -16 -53 -17 -17
-122 -20 -424 -13 l-304 7 -15 41 c-18 53 -43 59 -58 16 -17 -50 -13 -241 9
-399 11 -79 21 -145 23 -147 2 -1 93 -29 203 -62 366 -108 828 -250 884 -272
251 -98 421 -151 524 -165 61 -8 127 -14 149 -14 56 0 227 60 227 79 0 9 -19
228 -41 486 -48 541 -45 503 -35 533 l7 22 -523 -1 c-288 -1 -541 -5 -563 -8z"/>
<path d="M3721 3366 c-16 -89 -25 -368 -14 -435 l8 -54 49 87 c51 91 226 443
226 454 0 4 -58 9 -129 10 l-129 4 -11 -66z"/>
<path d="M5950 2800 l0 -582 23 5 c336 81 1393 304 1685 357 215 38 569 102
785 140 215 39 556 100 757 136 296 53 1653 321 1656 327 0 1 26 39 57 84 31
45 57 86 57 90 0 4 -600 9 -1333 10 -732 1 -1862 4 -2509 8 l-1178 7 0 -582z"/>
<path d="M5198 2983 c-3 -251 -1 -433 4 -440 12 -15 181 -89 286 -125 101 -34
212 -47 228 -27 12 15 20 449 16 822 l-2 197 -264 0 -263 0 -5 -427z"/>
</g>
</svg>
