<?xml version="1.0" encoding="utf-8"?>
<!-- Generator: Adobe Illustrator 13.0.2, SVG Export Plug-In . SVG Version: 6.00 Build 14948)  -->
<!DOCTYPE svg PUBLIC "-//W3C//DTD SVG 1.0//EN" "http://www.w3.org/TR/2001/REC-SVG-20010904/DTD/svg10.dtd">
<svg version="1.0"
	 id="svg2" xmlns:dc="http://purl.org/dc/elements/1.1/" xmlns:cc="http://creativecommons.org/ns#" xmlns:rdf="http://www.w3.org/1999/02/22-rdf-syntax-ns#" xmlns:svg="http://www.w3.org/2000/svg" xmlns:sodipodi="http://sodipodi.sourceforge.net/DTD/sodipodi-0.dtd" xmlns:inkscape="http://www.inkscape.org/namespaces/inkscape" sodipodi:version="0.32" inkscape:version="0.46" sodipodi:docname="monoplane_mid.svg" inkscape:output_extension="org.inkscape.output.svg.inkscape"
	 xmlns="http://www.w3.org/2000/svg" xmlns:xlink="http://www.w3.org/1999/xlink" x="0px" y="0px" width="220px" height="100px"
	 viewBox="0 0 260 100" enable-background="new 0 0 260 100" xml:space="preserve">
<defs>
	
	
		<inkscape:perspective  id="perspective10" sodipodi:type="inkscape:persp3d" inkscape:vp_x="0 : 526.18109 : 1" inkscape:vp_y="0 : 1000 : 0" inkscape:vp_z="744.09448 : 526.18109 : 1" inkscape:persp3d-origin="372.04724 : 350.78739 : 1">
		</inkscape:perspective>
</defs>
<sodipodi:namedview  units="px" id="base" borderopacity="1.0" gridtolerance="10000" inkscape:zoom="1" guidetolerance="10" inkscape:cy="76.22803" pagecolor="#ffffff" objecttolerance="10" showgrid="false" bordercolor="#666666" inkscape:cx="254.56544" inkscape:pageopacity="0.0" inkscape:pageshadow="2" inkscape:document-units="pt" inkscape:current-layer="layer1" inkscape:window-width="1280" inkscape:window-height="953" inkscape:window-x="0" inkscape:window-y="48">
	</sodipodi:namedview>
<path id="path3302" fill="#FFFFFF" stroke="#000000" stroke-width="0.5325" d="M132.158,4.266v31.471c-3.692,0-3.692,0-3.692,0
	V4.266l0,0H132.158z"/>
<path id="path3298" fill="#FFFFFF" stroke="#000000" stroke-width="1.2615" d="M4.248,50.447h252.129c0,4.822,0,4.822,0,4.822H4.248
	l0,0V50.447z"/>
<path id="path3300" fill="#FFFFFF" stroke="#000000" stroke-width="0.5965" d="M80.213,44.425h100.198c0,3.563,0,3.563,0,3.563
	H80.213l0,0V44.425z"/>
<path id="path3304" sodipodi:nodetypes="cccccc" fill="#FFFFFF" stroke="#000000" stroke-width="1.2615" d="M120.009,44.501
	l1.776-12.925l0,0c1.025-8.031,15.025-8.196,16.344,0l2.486,13.248L120.009,44.501z"/>
<path id="path3306" sodipodi:cx="359.10922" sodipodi:cy="143.72997" sodipodi:rx="29.7995" sodipodi:ry="29.7995" sodipodi:type="arc" fill="#FFFFFF" stroke="#000000" stroke-width="2.2209" stroke-linejoin="bevel" d="
	M147.239,53.151c0,9.349-7.579,16.927-16.927,16.927c-9.349,0-16.927-7.578-16.927-16.927c0-9.348,7.578-16.927,16.927-16.927
	C139.66,36.225,147.239,43.803,147.239,53.151z"/>
<path id="path3308" sodipodi:cx="359.10922" sodipodi:cy="143.72997" sodipodi:rx="29.7995" sodipodi:ry="29.7995" sodipodi:type="arc" fill="#FFFFFF" stroke="#000000" stroke-width="1.5098" stroke-linejoin="bevel" d="
	M140.822,53.151c0,5.806-4.705,10.511-10.51,10.511c-5.805,0-10.51-4.705-10.51-10.511c0-5.805,4.706-10.51,10.51-10.51
	C136.117,42.641,140.822,47.347,140.822,53.151z"/>
<path id="path3310" sodipodi:cx="359.10922" sodipodi:cy="143.72997" sodipodi:rx="29.7995" sodipodi:ry="29.7995" sodipodi:type="arc" fill="#FFFFFF" stroke="#000000" stroke-width="2.3376" stroke-linejoin="bevel" d="
	M137.101,53.151c0,3.749-3.04,6.788-6.789,6.788c-3.749,0-6.789-3.039-6.789-6.788s3.04-6.788,6.789-6.788
	C134.061,46.363,137.101,49.402,137.101,53.151z"/>
</svg>