<?xml version="1.0" encoding="UTF-8"?>
<svg viewBox="0 0 281.25 281.25" xmlns="http://www.w3.org/2000/svg">
 <g fill-rule="evenodd" stroke-linecap="square">
  <g stroke="#000">
   <g transform="matrix(.95059 0 0 .95059 -27.738 76.303)">
    <path d="m312.35 68.13a135.24 135.24 0 1 1 -270.48 0h270.48z" fill="#000000"/>
    <path d="m41.875 68.067a135.24 135.24 0 0 1 270.48 0h-270.48z" fill="#fff"/>
   </g>
   <g transform="matrix(.69155 0 0 .69155 155.68 154.03)">
    <path d="m113.47-18.98a135.24 135.24 0 1 1 -270.48 0h270.48z" fill="#000000"/>
    <path d="m-157.01-19.043a135.24 135.24 0 0 1 270.48 0h-270.48z" fill="#fff"/>
   </g>
  </g>
  <g fill="none" stroke="#000000">
   <g stroke-width="1.5">
    <path d="m134.6 134.64l12.055-0.0643"/>
    <path d="m134.6 120.53l12.055-0.0643"/>
   </g>
   <path d="m132.22 127.6l16.806-0.0897" stroke-width="2.091"/>
  </g>
 </g>
 <g fill="#000000">
  <path d="m123.08 131.55l-0.0641-7.3907 0.9508-0.0082 0.0641 7.3907-0.9508 0.0082zm4.5069 0.096c-0.55108 0.004761-0.95717-0.30328-1.2183-0.92418-0.26115-0.62086-0.39727-1.5742-0.40846-2.86-0.021996-2.5356 0.49828-3.808 1.5608-3.8172 0.54745-0.004745 0.9562 0.29517 1.2262 0.89977s0.41074 1.5678 0.42218 2.8896c0.011017 1.2678-0.1068 2.2188-0.35342 2.8531-0.24667 0.63429-0.65631 0.95392-1.229 0.95891zm0.6045-3.8036c-0.009872-1.1417-0.066147-1.9175-0.16875-2.3272-0.10262-0.40973-0.26377-0.61364-0.48347-0.61174-0.21252 0.001862-0.36942 0.1833-0.47076 0.54437-0.1013 0.36108-0.14659 1.1629-0.13583 2.4055 0.01693 1.9485 0.23608 2.921 0.65749 2.9173 0.41778-0.003616 0.61823-0.97969 0.60131-2.9282z"/>
  <path d="m152.15 131.55l-0.0641-7.3907 0.9508-0.0083 0.0641 7.3907-0.9508 0.0083zm4.5069 0.096c-0.55109 0.004791-0.95718-0.30327-1.2183-0.92415-0.26114-0.62086-0.39726-1.5742-0.4084-2.86-0.022034-2.5356 0.49823-3.808 1.5608-3.8172 0.54746-0.004745 0.95616 0.29517 1.2262 0.89977 0.26997 0.6046 0.41069 1.5678 0.42218 2.8896 0.010971 1.2678-0.10683 2.2188-0.35346 2.8531-0.24667 0.63428-0.65631 0.9539-1.229 0.95886zm0.6046-3.8035c-0.009918-1.1417-0.066177-1.9175-0.16879-2.3272-0.10262-0.40973-0.26376-0.61364-0.48346-0.61174-0.21248 0.001839-0.36942 0.18332-0.47072 0.54437-0.10135 0.3611-0.14664 1.1629-0.13583 2.4055 0.016891 1.9485 0.23604 2.921 0.65746 2.9173 0.41779-0.003632 0.61824-0.97969 0.60135-2.9282z"/>
 </g>
 <g fill="none" stroke="#fff">
  <path d="m48.422 140.92h184.4" stroke-width="4"/>
  <path d="m109.05 167.77h63.039m11.422 0h46.229m-178.22 0h45.896" stroke-width="1.933"/>
  <g stroke-width="2">
   <path d="m172.62 154.31h60.203m-113.97 0h43.642m-114.07 0h60.301"/>
   <path d="m200.9 201.66l-59.265-60.301 88.641 23.363m-150.5 36.938l59.265-60.301-88.641 23.363"/>
  </g>
 </g>
 <path d="m164.07 158.38v-8.3148h1.0698v8.3148h-1.0698zm5.0691 0.1519c-0.61996 0-1.0738-0.35049-1.3615-1.0515-0.2877-0.701-0.43155-1.7748-0.43155-3.2214 0-2.8526 0.59769-4.279 1.793-4.279 0.61591 1.5e-5 1.0728 0.3414 1.3706 1.0242 0.29784 0.68278 0.44675 1.7677 0.44675 3.2548 0 1.4263-0.14183 2.4951-0.42548 3.2062-0.28363 0.71114-0.7476 1.0667-1.3919 1.0667zm0.7172-4.2729c0-1.2845-0.05571-2.1577-0.16714-2.6197-0.11144-0.46193-0.29074-0.6929-0.5379-0.6929-0.23908 0-0.41737 0.20261-0.53488 0.60782-0.11751 0.4052-0.17627 1.3068-0.17627 2.7047 0 2.1922 0.23704 3.2882 0.71115 3.2882 0.47003 0 0.70505-1.0961 0.70505-3.2882z" fill="#fff"/>
 <g fill="none" stroke="#000000" stroke-width="8">
  <g stroke-linecap="round">
   <path d="m30.594 140.73h13.831"/>
   <path d="m237.05 140.73h13.831"/>
   <path d="m54.348 96.06l-11.978-6.9155"/>
   <path d="m226.48 96.06l11.978-6.9155"/>
  </g>
  <path d="m140.77 30.006v13.831" stroke-linecap="square"/>
  <g stroke-linecap="round">
   <path d="m198.45 46.708l-6.9155 11.978"/>
   <path d="m82.064 46.708l6.9155 11.978"/>
  </g>
 </g>
 <g fill="#0000">
  <path d="m110.89 158.38v-8.3148h1.0697v8.3148h-1.0697zm5.0691 0.1519c-0.61997 0-1.0738-0.35049-1.3615-1.0515-0.2877-0.701-0.43155-1.7748-0.43155-3.2214 0-2.8526 0.59768-4.279 1.793-4.279 0.61591 1.5e-5 1.0728 0.3414 1.3706 1.0242 0.29783 0.68278 0.44674 1.7677 0.44674 3.2548 0 1.4263-0.14182 2.4951-0.42546 3.2062-0.28365 0.71114-0.74761 1.0667-1.3919 1.0667zm0.7172-4.2729c0-1.2845-0.05571-2.1577-0.16714-2.6197-0.11144-0.46193-0.29073-0.6929-0.53791-0.6929-0.23908 0-0.41737 0.20261-0.53487 0.60782-0.11751 0.4052-0.17626 1.3068-0.17626 2.7047 0 2.1922 0.23704 3.2882 0.71114 3.2882 0.47004 0 0.70506-1.0961 0.70506-3.2882z"/>
  <path d="m173.82 171.7v-0.16412c1.4587-2.415 2.1881-4.3195 2.1881-5.7134 0-0.42142-0.098267-0.75874-0.2948-1.012-0.19652-0.25325-0.45889-0.37987-0.78711-0.37987-0.23097 0-0.54298 0.091171-0.93602 0.27351v-1.1062c0.4295-0.19855 0.83269-0.29782 1.2095-0.29784 0.58756 1.5e-5 1.0515 0.20767 1.3919 0.623 0.34036 0.41534 0.51056 0.98366 0.51056 1.7049 0 0.62402-0.13373 1.3028-0.40115 2.0362-0.26744 0.73343-0.7233 1.7262-1.3676 2.9783h1.945v1.0576h-3.4584zm6.3759 0.1519c-0.61996 0-1.0738-0.35049-1.3615-1.0515-0.28769-0.701-0.43155-1.7748-0.43155-3.2214 0-2.8526 0.59769-4.279 1.793-4.279 0.61592 1.5e-5 1.0728 0.3414 1.3706 1.0242 0.29784 0.68277 0.44675 1.7677 0.44675 3.2548 0 1.4264-0.14183 2.4951-0.42546 3.2062-0.28365 0.71114-0.74762 1.0667-1.3919 1.0667zm0.7172-4.2729c0-1.2845-0.05571-2.1577-0.16714-2.6196-0.11144-0.46194-0.29073-0.6929-0.5379-0.69292-0.23908 1.5e-5 -0.41737 0.20261-0.53488 0.60782s-0.17627 1.3068-0.17627 2.7047c0 2.1922 0.23706 3.2883 0.71115 3.2883 0.47003 0 0.70505-1.0961 0.70505-3.2883z"/>
  <path d="m99.476 171.66v-0.16412c1.4588-2.415 2.1881-4.3195 2.1881-5.7134 0-0.4214-0.098267-0.75873-0.29479-1.012-0.19652-0.25325-0.45889-0.37987-0.78711-0.37987-0.23097 0-0.54298 0.091171-0.93603 0.27351v-1.1062c0.42952-0.19855 0.8327-0.29784 1.2095-0.29784 0.58755 0 1.0515 0.20767 1.3919 0.623 0.34038 0.41534 0.51056 0.98364 0.51056 1.7049 0 0.62402-0.13371 1.3028-0.40115 2.0362-0.26743 0.73343-0.72329 1.7262-1.3676 2.9783h1.945v1.0576h-3.4584zm6.3759 0.1519c-0.61996 0-1.0738-0.35049-1.3615-1.0515-0.2877-0.701-0.43155-1.7748-0.43155-3.2214 0-2.8526 0.59769-4.279 1.793-4.279 0.61591 0 1.0728 0.3414 1.3706 1.0242 0.29782 0.68277 0.44674 1.7677 0.44674 3.2548 0 1.4264-0.14182 2.4951-0.42547 3.2062-0.28365 0.71114-0.7476 1.0667-1.3919 1.0667zm0.7172-4.2729c0-1.2845-0.055717-2.1577-0.16715-2.6196-0.11143-0.46194-0.29073-0.6929-0.53791-0.69292-0.23908 1.5e-5 -0.41736 0.20261-0.53487 0.60782s-0.17626 1.3068-0.17626 2.7047c0 2.1922 0.23704 3.2883 0.71114 3.2883 0.47004 0 0.70506-1.0961 0.70506-3.2883z"/>
 </g>
 <g fill="none" stroke="#000" stroke-linecap="square" stroke-width="3">
  <path d="m120.84 33.051l2.4017 13.621"/>
  <path d="m160.7 33.051l-2.4017 13.621"/>
  <path d="m101.59 38.626l4.7305 12.997"/>
  <path d="m179.28 38.626l-4.7305 12.997"/>
 </g>
</svg>
