<?xml version="1.0" encoding="iso-8859-1"?>
<!-- Generator: Adobe Illustrator 18.1.1, SVG Export Plug-In . SVG Version: 6.00 Build 0)  -->
<svg version="1.1" id="Capa_1" xmlns="http://www.w3.org/2000/svg" xmlns:xlink="http://www.w3.org/1999/xlink" x="0px" y="0px"
	 viewBox="0 0 402.251 402.251" style="enable-background:new 0 0 402.251 402.251;" xml:space="preserve">
<g>
	<g>
		<polygon style="fill:#010002;" points="205.404,212.802 220.136,227.535 268.981,149.219 190.672,198.07 		"/>
		<polygon style="fill:#010002;" points="182.234,206.507 133.384,284.823 211.699,235.972 196.967,221.24 		"/>
		<path style="fill:#010002;" d="M363.854,128.461c-8.509-15.615-19.172-29.882-31.702-42.407
			c-12.524-12.53-26.791-23.193-42.401-31.702c-10.174-5.543-20.86-10.096-31.881-13.628V5.967c0-3.294-2.667-5.967-5.967-5.967
			H150.467c-3.294,0-5.967,2.673-5.967,5.967v34.691c-27.716,8.867-53.117,24.231-74.282,45.396
			c-72.217,72.217-72.217,189.723,0,261.946c34.984,34.984,81.501,54.251,130.973,54.251S297.174,382.984,332.164,348
			C389.834,290.318,402.871,200.039,363.854,128.461z M156.428,11.928h89.503v25.365c-14.649-3.646-29.673-5.49-44.752-5.49
			c-1.474,0-2.948,0.101-4.421,0.131c-1.868,0.042-3.735,0.078-5.591,0.173c-1.414,0.078-2.822,0.203-4.236,0.31
			c-2.25,0.167-4.499,0.37-6.731,0.621c-1.038,0.119-2.071,0.245-3.103,0.376c-3.013,0.388-6.015,0.853-8.992,1.384
			c-0.298,0.054-0.597,0.101-0.889,0.155c-3.622,0.668-7.22,1.408-10.782,2.285V11.928H156.428z M292.741,133.688L226.288,240.22
			c-0.006,0.006-0.012,0.006-0.012,0.012c-0.215,0.34-0.567,0.555-0.841,0.847c-0.346,0.358-0.621,0.776-1.044,1.038
			c-0.006,0-0.006,0.006-0.012,0.012l-106.533,66.453c-0.973,0.609-2.071,0.901-3.156,0.901c-1.545,0-3.073-0.597-4.225-1.748
			c-1.963-1.963-2.315-5.024-0.847-7.375l66.453-106.532c0-0.006,0.006-0.006,0.012-0.012c0.233-0.376,0.621-0.627,0.937-0.943
			s0.567-0.698,0.943-0.937c0.006,0,0.006-0.006,0.012-0.012l106.532-66.453c2.357-1.462,5.406-1.122,7.375,0.847
			C293.857,128.27,294.209,131.331,292.741,133.688z"/>
	</g>
</g>
<g>
</g>
<g>
</g>
<g>
</g>
<g>
</g>
<g>
</g>
<g>
</g>
<g>
</g>
<g>
</g>
<g>
</g>
<g>
</g>
<g>
</g>
<g>
</g>
<g>
</g>
<g>
</g>
<g>
</g>
</svg>
