<?xml version="1.0" standalone="no"?>
<!DOCTYPE svg PUBLIC "-//W3C//DTD SVG 20010904//EN"
 "http://www.w3.org/TR/2001/REC-SVG-20010904/DTD/svg10.dtd">
<svg version="1.0" xmlns="http://www.w3.org/2000/svg"
  viewBox="0 0 1219.000000 1280.000000"
 preserveAspectRatio="xMidYMid meet">
<g transform="translate(0.000000,1280.000000) scale(0.100000,-0.100000)"
 stroke="none">
<path d="M5927 12268 c-3 -7 -49 -112 -102 -233 -94 -214 -97 -224 -126 -385
-16 -90 -29 -195 -29 -232 0 -37 -5 -70 -10 -73 -16 -10 -469 -62 -480 -55 -5
3 -16 41 -25 85 -9 44 -28 100 -41 124 -13 25 -43 85 -65 135 -22 49 -66 124
-97 165 -32 42 -67 91 -77 109 -11 17 -22 32 -25 32 -3 0 -37 43 -75 95 -39
52 -74 94 -80 94 -13 1 -316 -76 -319 -81 -2 -1 -20 -118 -40 -258 -35 -248
-36 -259 -26 -395 10 -143 20 -209 39 -258 23 -61 26 -59 -204 -151 -118 -47
-223 -86 -234 -86 -12 0 -24 14 -35 44 -9 24 -68 108 -130 186 -109 138 -120
148 -312 296 -109 85 -204 154 -210 154 -6 0 -73 -35 -148 -77 -118 -67 -136
-80 -136 -102 0 -14 12 -129 26 -256 26 -229 27 -231 86 -393 33 -90 73 -185
90 -212 17 -27 29 -53 27 -59 -5 -14 -376 -291 -390 -291 -7 0 -28 19 -48 42
-20 23 -97 87 -171 142 -129 96 -146 105 -374 203 l-239 102 -36 -29 c-20 -16
-75 -68 -123 -117 l-88 -88 94 -237 c52 -131 104 -253 115 -272 12 -19 45 -81
75 -138 39 -75 57 -102 70 -100 23 4 117 -79 114 -101 -3 -19 -276 -373 -294
-381 -6 -2 -34 11 -61 29 -28 19 -121 61 -208 95 -155 60 -161 61 -404 95
-135 19 -251 35 -258 35 -10 0 -152 -230 -169 -273 -4 -11 12 -41 44 -85 28
-37 57 -86 65 -110 36 -103 185 -314 318 -449 45 -46 85 -83 89 -83 5 0 11 14
15 31 4 17 13 33 21 36 18 7 105 -27 111 -44 6 -15 -173 -444 -190 -455 -6 -3
-33 2 -60 13 -30 12 -114 27 -221 38 l-171 19 -250 -30 c-137 -16 -255 -35
-262 -41 -6 -7 -30 -79 -53 -162 l-41 -150 56 -50 56 -50 -7 -55 -6 -55 113
-91 c155 -123 250 -192 341 -247 79 -48 155 -83 163 -75 2 2 7 31 11 64 8 73
17 85 57 77 58 -10 58 -8 21 -258 -19 -126 -36 -236 -39 -244 -4 -10 -18 -12
-59 -7 -36 5 -108 -1 -230 -19 l-177 -27 -232 -94 c-127 -52 -234 -98 -238
-102 -4 -4 -11 -79 -15 -167 l-7 -160 44 -20 44 -20 10 -77 c6 -43 17 -84 25
-92 16 -16 237 -115 367 -164 111 -43 263 -82 347 -89 l68 -6 -3 99 c-4 89 -2
99 15 102 10 2 22 0 27 -5 15 -15 69 -493 56 -493 -42 0 -153 -36 -272 -87
-141 -62 -163 -75 -357 -221 -115 -86 -208 -161 -208 -167 0 -35 74 -295 91
-318 11 -15 27 -49 35 -75 25 -86 46 -109 118 -131 233 -72 575 -92 779 -45
l78 17 -3 36 c-2 20 1 35 7 34 13 -2 124 -270 125 -299 0 -16 -12 -26 -48 -41
-26 -11 -110 -69 -185 -129 -131 -103 -145 -117 -289 -303 -83 -108 -153 -203
-155 -211 -2 -9 25 -70 60 -136 38 -68 68 -137 71 -163 8 -54 27 -91 72 -140
44 -49 87 -56 279 -41 245 19 449 73 622 165 47 25 90 45 96 45 6 0 19 -7 29
-17 11 -9 18 -11 18 -5 0 26 20 9 72 -61 30 -39 58 -78 62 -85 6 -10 -9 -32
-46 -70 -31 -32 -97 -112 -147 -180 -87 -116 -98 -137 -192 -357 -54 -129 -99
-237 -99 -240 0 -3 32 -39 70 -80 64 -68 70 -78 70 -117 0 -24 9 -61 19 -83
21 -46 111 -132 149 -142 56 -14 291 60 462 146 131 66 230 133 327 225 44 42
83 76 87 76 3 0 33 -18 67 -40 34 -22 66 -40 71 -40 4 0 8 14 8 30 0 47 24 47
85 0 30 -23 55 -46 55 -50 0 -4 -14 -26 -31 -50 -17 -23 -60 -115 -95 -204
l-65 -161 -35 -260 c-19 -143 -31 -261 -27 -262 5 -2 31 -18 58 -36 46 -30 50
-36 56 -82 14 -104 54 -162 143 -204 102 -49 100 -49 225 27 243 147 440 341
565 555 32 56 26 56 171 2 101 -38 105 -37 105 37 0 26 4 49 9 53 5 3 28 -2
50 -11 46 -18 49 -29 26 -94 -16 -44 -45 -293 -45 -382 0 -70 49 -477 60 -505
5 -13 18 -23 29 -23 22 0 51 -35 51 -61 0 -9 14 -43 30 -76 48 -96 127 -143
240 -143 l57 0 89 93 c193 200 329 421 389 632 14 49 30 94 35 99 9 9 177 -3
293 -20 l37 -6 0 87 0 86 28 -3 c26 -3 27 -5 25 -58 -1 -30 10 -134 24 -230
25 -173 27 -178 115 -400 139 -349 201 -437 339 -482 69 -22 70 -22 137 -4 37
10 70 23 74 29 4 7 41 91 82 187 121 285 166 454 166 630 0 66 4 101 13 108
44 37 336 61 423 34 40 -12 43 -16 79 -100 20 -48 50 -106 66 -129 16 -23 36
-61 44 -83 33 -92 166 -295 252 -382 79 -81 128 -103 228 -103 67 0 89 4 137
28 65 32 57 10 95 252 21 140 26 203 26 360 0 167 -3 200 -23 270 -12 44 -24
90 -27 103 -5 20 6 28 108 77 186 89 282 104 374 61 67 -31 108 -77 159 -175
37 -71 59 -97 167 -197 140 -131 189 -168 269 -201 102 -42 203 -22 295 58
l38 33 -6 181 c-9 268 -62 485 -168 683 l-50 93 33 31 c76 71 187 153 247 181
132 62 236 34 356 -95 46 -50 89 -83 162 -124 110 -63 227 -117 291 -134 72
-19 177 -14 227 10 50 24 142 119 151 156 7 28 -97 295 -178 459 -28 55 -65
134 -82 175 -18 41 -63 118 -99 170 -37 52 -67 102 -67 111 0 23 112 171 161
213 123 105 241 102 404 -9 39 -27 82 -42 200 -70 82 -20 183 -40 224 -45 191
-21 308 42 355 194 l18 57 -55 92 c-40 67 -54 99 -50 117 4 21 -24 64 -149
230 -137 184 -166 216 -273 308 -66 56 -146 116 -177 132 -64 34 -72 42 -63
70 9 30 32 24 92 -21 29 -23 55 -40 57 -38 2 2 18 33 36 69 44 88 83 135 138
168 66 38 175 38 282 -1 74 -28 78 -28 230 -22 188 8 286 26 364 68 58 31 106
83 128 137 16 39 28 152 18 170 -5 9 -34 36 -65 60 -55 42 -56 45 -49 79 15
75 20 69 -187 233 -185 147 -205 160 -350 228 -85 39 -181 77 -214 84 l-60 12
2 48 c2 63 11 72 60 55 21 -8 42 -14 46 -14 4 0 19 26 31 58 35 84 71 126 135
156 50 23 69 26 181 28 117 1 134 4 274 47 82 25 178 59 212 75 90 42 156 107
183 180 25 70 26 79 4 149 -15 46 -26 61 -70 93 l-52 39 -3 82 -3 83 -225 98
c-206 91 -236 101 -360 124 -74 13 -182 28 -240 31 l-105 7 -9 63 c-10 69 -4
82 41 82 18 0 25 10 38 55 30 104 119 171 263 199 56 11 95 27 170 72 156 93
234 148 288 206 74 78 89 110 88 194 0 89 -39 180 -85 196 -24 8 -32 20 -44
64 -9 30 -22 78 -30 107 l-15 54 -258 36 -257 37 -160 -15 c-88 -8 -186 -22
-217 -31 -31 -9 -63 -14 -71 -11 -20 8 -67 127 -57 147 5 8 13 41 20 72 6 32
24 74 41 98 31 43 128 111 183 130 20 6 74 55 152 138 187 197 233 272 234
375 0 66 -16 109 -63 176 -18 25 -64 99 -101 163 -37 65 -70 119 -74 121 -4 3
-124 -10 -267 -28 -258 -33 -261 -34 -415 -90 -85 -32 -173 -71 -194 -86 -22
-16 -46 -29 -53 -29 -7 0 -45 43 -84 95 l-71 95 11 46 c6 25 23 63 37 86 25
39 122 138 135 138 10 0 156 269 191 352 54 128 51 247 -8 324 -28 36 -34 52
-29 72 5 22 -7 39 -107 139 -62 62 -118 113 -124 113 -6 0 -116 -42 -245 -93
-222 -88 -241 -98 -378 -192 -79 -55 -157 -116 -174 -137 -17 -21 -37 -38 -45
-38 -24 0 -381 283 -382 303 0 26 18 21 69 -20 25 -20 51 -41 58 -45 8 -7 18
6 33 39 11 26 38 75 59 108 77 120 144 483 111 601 -7 26 -30 67 -50 93 -34
43 -37 50 -33 101 l5 55 -141 83 c-77 46 -144 82 -149 80 -4 -1 -99 -70 -209
-151 -191 -141 -207 -156 -311 -280 -60 -73 -121 -156 -136 -184 -14 -29 -33
-53 -40 -53 -16 0 -414 168 -433 183 -17 13 -16 39 1 63 14 19 15 18 59 -3
l45 -22 23 62 c22 57 23 75 21 217 -5 242 -28 343 -98 436 -30 39 -36 57 -45
132 -6 48 -12 88 -14 90 -1 1 -73 23 -160 48 -153 44 -159 45 -176 27 -10 -10
-83 -101 -163 -203 -136 -172 -150 -195 -216 -339 -39 -85 -76 -178 -82 -208
-6 -29 -16 -57 -22 -62 -13 -10 -464 53 -478 67 -5 5 -8 33 -6 63 3 51 5 54
31 57 25 3 27 6 27 53 0 91 -109 385 -175 474 -12 17 -45 86 -73 155 -32 79
-57 127 -69 131 -10 4 -86 8 -169 8 -113 1 -153 -2 -157 -11z m574 -2443 c268
-25 534 -80 785 -160 60 -19 113 -35 118 -35 5 0 6 34 4 75 -4 54 -2 75 8 79
31 12 44 -21 74 -179 l29 -160 -42 -240 -42 -240 -195 -330 c-108 -181 -263
-444 -345 -584 l-150 -254 -196 -158 c-107 -87 -201 -170 -209 -183 -23 -45
-40 -40 -40 10 0 68 -20 51 -50 -42 -14 -43 -28 -85 -31 -92 -4 -12 -32 -12
-163 -3 -116 8 -163 8 -178 0 -12 -6 -64 -22 -117 -36 -88 -22 -245 -90 -332
-144 l-36 -23 -98 58 -98 57 -243 44 -244 44 -584 346 -585 346 -117 145 -117
145 0 79 c2 175 87 338 257 497 172 161 353 270 861 523 440 218 524 252 790
319 199 49 445 90 635 104 133 10 513 5 651 -8z m1572 -371 c31 -19 57 -41 57
-47 0 -17 -115 -174 -182 -250 -72 -81 -168 -147 -214 -147 -47 0 -69 42 -60
116 9 75 11 79 79 113 101 50 221 164 242 231 8 26 11 26 78 -16z m642 -622
c191 -172 407 -422 553 -638 22 -34 48 -64 56 -67 19 -7 150 -266 213 -421
286 -694 360 -1456 213 -2186 -50 -248 -183 -674 -214 -686 -6 -2 -83 -17
-170 -33 l-160 -29 -237 43 -237 43 -585 346 -585 347 -154 190 c-144 179
-158 193 -238 242 -69 43 -86 57 -88 80 -4 34 19 45 53 23 31 -20 38 -20 31 2
-3 9 -12 114 -21 232 -17 236 -32 325 -68 404 -23 49 -23 55 -10 87 28 68 63
188 107 369 68 284 104 372 211 515 29 39 101 156 161 260 204 358 311 518
437 651 139 147 294 249 465 305 135 44 130 45 267 -79z m-5508 -729 c51 -61
73 -104 73 -143 0 -66 -102 -74 -270 -20 -77 25 -284 123 -294 139 -9 13 11
51 26 51 7 0 31 -9 55 -21 24 -12 62 -23 84 -26 39 -6 44 -3 74 33 l33 39 46
-17 c46 -17 46 -17 72 7 32 30 46 24 101 -42z m-78 -589 c201 -30 293 -52 346
-86 131 -83 243 -148 419 -245 515 -285 732 -437 829 -584 20 -31 62 -80 93
-109 60 -56 74 -56 74 3 0 32 18 35 62 10 28 -17 29 -21 24 -63 -17 -126 -18
-248 -2 -340 28 -158 68 -265 167 -436 l23 -41 -57 -97 -58 -96 -44 -244 -44
-244 -346 -585 -346 -584 -192 -154 -192 -154 -152 -49 -151 -50 -65 57 c-386
339 -742 820 -896 1211 -164 417 -245 791 -272 1248 -28 497 59 1054 236 1501
l39 97 54 16 c126 37 283 43 451 18z m3687 -71 c25 -58 -3 -216 -47 -272 -11
-13 -17 -32 -14 -41 3 -9 -1 -25 -9 -36 -18 -23 -42 -12 -66 32 -11 19 -30 32
-56 40 -62 18 -146 64 -141 77 2 8 31 12 84 12 73 0 84 3 108 25 37 34 55 79
55 138 0 57 4 62 42 62 24 0 32 -6 44 -37z m-1648 -453 c23 -10 42 -23 42 -29
0 -5 -24 -45 -54 -88 -29 -43 -63 -97 -75 -120 -12 -24 -26 -43 -31 -43 -14 0
-145 115 -169 149 -30 42 -27 55 9 36 67 -35 132 -11 179 65 17 27 36 50 43
50 7 0 32 -9 56 -20z m1143 -449 c30 -11 71 -32 90 -46 l34 -26 5 47 c5 45 6
46 22 27 26 -29 65 -123 78 -189 18 -94 0 -226 -45 -319 -89 -186 -299 -308
-502 -291 -127 10 -267 77 -348 167 -32 36 -46 69 -27 69 4 0 8 46 8 103 1
116 20 180 78 271 57 90 169 166 296 201 78 21 237 15 311 -14z m886 -898 c96
-130 55 -200 -100 -173 -74 13 -207 55 -233 74 -16 12 -17 17 -5 40 13 24 17
25 106 24 92 -1 148 14 176 48 17 21 33 17 56 -13z m-1683 -316 c33 -18 61
-37 63 -42 10 -33 -193 -226 -253 -241 -70 -18 -105 38 -88 138 9 52 9 53 79
91 39 21 81 49 95 62 13 14 29 25 35 25 5 0 37 -15 69 -33z m1491 -240 c226
-74 285 -89 368 -95 69 -4 85 -9 138 -43 103 -67 267 -163 479 -279 349 -192
537 -318 699 -467 44 -40 76 -63 79 -55 6 19 28 14 45 -11 15 -24 107 -297
107 -319 0 -18 -195 -228 -300 -325 -290 -266 -551 -448 -881 -613 -412 -207
-797 -323 -1283 -387 -153 -20 -698 -24 -801 -5 -33 6 -107 17 -165 26 -58 8
-138 20 -179 27 -103 15 -283 61 -435 109 l-129 42 7 59 c3 33 9 71 12 85 6
21 3 25 -11 22 -12 -2 -25 -24 -39 -65 -12 -34 -24 -65 -28 -68 -3 -4 -23 -1
-43 7 -40 14 -55 39 -55 90 0 29 2 30 30 25 30 -6 30 -6 30 41 1 120 42 306
101 455 66 166 129 284 289 542 47 77 113 187 144 245 167 301 359 528 563
663 38 25 66 51 72 67 14 43 72 102 121 124 40 18 71 21 295 27 284 6 318 14
410 90 l50 41 85 -4 c65 -4 117 -15 225 -51z m1842 -611 c4 -8 28 -30 53 -50
41 -33 46 -34 67 -21 27 18 91 19 146 3 38 -12 40 -11 66 19 14 17 33 42 42
54 l16 23 41 -18 c81 -36 81 -42 19 -148 -30 -51 -69 -112 -86 -136 -31 -42
-32 -42 -60 -27 -119 61 -351 278 -351 328 0 11 38 -11 47 -27z m-4486 -975
c53 -43 18 -221 -87 -438 -40 -84 -59 -113 -73 -113 -21 0 -226 120 -256 150
-19 20 -19 20 1 47 18 24 27 27 90 28 157 3 264 115 264 275 0 42 13 70 31 70
4 0 17 -9 30 -19z m-136 -51 c-3 -5 -16 -15 -28 -21 -22 -12 -22 -12 -3 10 19
21 43 30 31 11z m5685 -540 c0 -5 -2 -10 -4 -10 -3 0 -8 5 -11 10 -3 6 -1 10
4 10 6 0 11 -4 11 -10z m-2970 -1875 c0 -8 -2 -15 -4 -15 -2 0 -6 7 -10 15 -3
8 -1 15 4 15 6 0 10 -7 10 -15z"/>
</g>
</svg>
