<?xml version="1.0" standalone="no"?>
<!DOCTYPE svg PUBLIC "-//W3C//DTD SVG 20010904//EN"
 "http://www.w3.org/TR/2001/REC-SVG-20010904/DTD/svg10.dtd">
<svg version="1.0" xmlns="http://www.w3.org/2000/svg"
viewBox="0 0 512.000000 512.000000"
 preserveAspectRatio="xMidYMid meet">

<g transform="translate(0.000000,512.000000) scale(0.100000,-0.100000)"
fill="#38B6FF" stroke="none">
<path d="M1530 4568 c-471 -29 -913 -327 -1130 -760 -156 -311 -186 -674 -86
-1015 l24 -83 -169 0 -169 0 0 -150 0 -150 238 0 237 -1 45 -75 c258 -435 792
-946 1495 -1430 144 -99 447 -297 511 -334 l42 -24 158 99 c341 215 726 492
1019 736 192 159 529 493 645 639 81 102 260 365 260 382 0 4 106 8 235 8
l235 0 0 150 0 150 -164 0 -164 0 24 83 c40 136 57 252 57 397 0 368 -129 689
-381 952 -189 197 -391 318 -637 383 -134 36 -214 46 -361 46 -322 0 -617
-102 -864 -300 -54 -44 -66 -49 -80 -39 -9 7 -53 40 -97 74 -158 120 -389 217
-588 248 -126 19 -203 23 -335 14z m280 -309 c154 -22 318 -89 455 -187 64
-45 158 -135 262 -251 l39 -43 79 88 c161 182 296 277 492 347 108 39 224 58
358 58 309 0 582 -119 790 -344 287 -309 366 -738 212 -1147 l-24 -65 -429 -2
-429 -2 -160 209 c-88 115 -162 209 -165 210 -3 0 -104 -184 -225 -410 -121
-225 -222 -410 -225 -410 -3 0 -120 266 -260 590 -140 325 -257 590 -261 590
-3 0 -122 -210 -264 -467 -141 -258 -261 -472 -265 -476 -4 -5 -37 30 -74 77
l-67 86 -496 2 -496 3 -24 65 c-114 302 -103 607 32 887 163 337 507 573 875
601 106 8 160 6 270 -9z m739 -2039 c139 -322 256 -588 260 -592 4 -4 119 202
256 458 138 257 255 473 261 481 9 13 23 0 78 -71 l67 -86 415 -2 416 -3 -57
-79 c-281 -392 -788 -836 -1480 -1296 l-197 -130 -36 22 c-71 42 -308 202
-439 295 -539 381 -952 759 -1206 1105 -31 42 -57 79 -57 82 0 4 152 6 338 5
l337 0 150 -200 c83 -110 155 -205 161 -210 8 -7 79 112 240 405 126 228 232
412 235 408 3 -4 119 -270 258 -592z"/>
</g>
</svg>
