<?xml version="1.0" standalone="no"?>
<!DOCTYPE svg PUBLIC "-//W3C//DTD SVG 20010904//EN"
 "http://www.w3.org/TR/2001/REC-SVG-20010904/DTD/svg10.dtd">
<svg version="1.0" xmlns="http://www.w3.org/2000/svg"
 width="500px" height="300px" viewBox="0 0 2560 1280"
 preserveAspectRatio="xMidYMid meet">
<metadata>
Created by potrace 1.15, written by Peter Selinger 2001-2017
</metadata>
<g transform="translate(0.000000,640.000000) scale(0.100000,-0.100000)"
fill="#000000" stroke="none">
<path d="M607 6163 c-3 -4 63 -163 145 -353 361 -834 809 -1883 841 -1970 19
-52 48 -136 63 -187 l27 -91 141 -42 c78 -24 144 -46 149 -49 4 -4 -139 -63
-318 -130 l-324 -124 -49 32 c-57 36 -73 38 -96 12 -16 -18 -15 -20 26 -54 24
-19 104 -78 178 -132 74 -54 139 -101 144 -106 9 -8 -344 -245 -459 -308 -87
-48 -323 -210 -444 -305 -120 -93 -325 -287 -364 -344 l-27 -38 -110 20 c-86
16 -113 17 -122 8 -21 -21 10 -38 112 -62 52 -13 103 -27 112 -32 24 -12 23
-54 -2 -103 -25 -49 -25 -48 4 -93 13 -20 29 -62 36 -93 33 -169 193 -268 361
-225 35 9 91 35 125 56 41 27 72 40 95 40 19 0 68 16 109 36 111 53 211 84
272 84 29 0 129 -13 221 -29 164 -28 170 -30 215 -68 113 -94 220 -151 350
-184 148 -38 234 -20 281 58 18 29 31 41 41 37 8 -3 87 -31 175 -60 241 -83
355 -125 355 -134 0 -4 -16 -34 -35 -66 -57 -95 -59 -141 -5 -169 18 -9 32
-26 36 -43 9 -45 21 -68 54 -105 92 -105 269 -79 345 49 29 49 32 52 90 62 33
7 71 20 85 30 37 28 103 131 168 260 46 93 57 124 60 175 l4 63 -113 17 c-63
10 -117 21 -120 25 -4 4 -17 39 -29 77 -12 39 -52 142 -87 230 -84 205 -85
211 -69 244 7 14 16 49 19 76 9 77 43 143 117 225 134 150 219 287 290 470 18
47 35 87 36 89 3 3 521 -146 764 -219 52 -16 293 -88 535 -160 242 -72 613
-183 825 -246 646 -193 1034 -309 1285 -384 132 -39 389 -116 570 -170 182
-54 459 -137 618 -184 158 -47 416 -125 575 -172 158 -47 436 -130 617 -184
182 -54 438 -131 570 -170 132 -39 389 -116 570 -170 564 -168 1085 -324 1475
-440 206 -62 440 -132 520 -155 136 -42 166 -47 144 -26 -5 5 -187 112 -404
238 l-395 228 -780 321 c-429 177 -1241 512 -1805 744 -564 232 -1110 457
-1215 500 -104 43 -328 135 -497 204 -170 69 -445 182 -613 251 -168 69 -443
182 -613 251 -169 69 -444 182 -612 251 -168 69 -489 201 -715 293 -225 92
-588 241 -805 330 -217 89 -489 200 -605 247 l-210 86 -918 639 c-1628 1133
-1808 1256 -1891 1293 -67 30 -93 38 -99 28z m1550 -2740 c29 -9 53 -19 53
-22 0 -6 -53 -42 -378 -254 l-214 -140 -81 56 c-45 31 -97 69 -115 84 l-33 28
343 132 c189 73 349 132 357 133 8 0 38 -8 68 -17z m388 -115 c132 -39 242
-73 243 -74 4 -2 -217 -421 -290 -552 -17 -28 -33 -50 -38 -47 -11 7 -34 -23
-64 -83 -22 -43 -25 -57 -15 -68 6 -8 10 -17 7 -19 -2 -3 -163 108 -357 246
l-353 251 78 54 c411 282 530 362 539 363 6 1 118 -31 250 -71z m338 -104 c12
-4 2 -55 -60 -297 -41 -161 -77 -294 -79 -296 -2 -2 -25 7 -51 19 -29 14 -68
23 -100 24 l-52 0 22 41 c13 22 81 147 152 278 71 130 135 237 141 237 7 0 19
-3 27 -6z m119 -37 c15 -5 7 -45 -73 -359 -50 -194 -92 -355 -95 -357 -2 -2
-4 7 -4 22 0 14 -5 37 -11 49 -8 19 3 78 61 308 79 317 89 352 98 347 4 -2 15
-7 24 -10z m356 -104 c142 -42 259 -78 261 -80 3 -2 -10 -22 -27 -46 -126
-168 -249 -387 -303 -537 -33 -92 -83 -155 -136 -170 -38 -11 -45 -10 -77 10
-41 25 -39 21 -26 54 9 24 6 28 -43 52 -67 34 -117 71 -117 89 0 14 173 655
185 688 4 9 12 17 17 17 5 0 125 -34 266 -77z m-1380 -399 c191 -136 351 -250
355 -254 5 -4 1 -20 -9 -35 l-18 -27 -113 4 c-62 2 -114 6 -117 9 -2 2 1 27 7
55 17 84 14 86 -112 82 l-109 -3 -4 75 c-5 86 -35 154 -96 222 l-37 40 -127
-4 -127 -5 67 48 c37 26 73 45 80 43 8 -2 170 -115 360 -250z m246 -416 c-52
-58 -125 -118 -144 -118 -18 0 -29 8 -53 36 -17 20 -17 24 -2 60 26 63 28 64
137 64 l100 0 -38 -42z m-264 -103 c11 -13 8 -15 -17 -15 -52 0 -123 12 -123
21 0 16 126 10 140 -6z m1060 -16 c0 -11 -29 -19 -45 -13 -11 5 -12 11 -5 25
9 16 14 17 30 6 11 -6 20 -15 20 -18z m94 -100 c47 -28 75 -91 87 -199 10 -96
31 -194 54 -259 19 -56 19 -70 -2 -78 -10 -3 -51 -21 -91 -41 -40 -19 -74 -33
-76 -31 -9 9 -231 400 -263 463 -48 95 -43 102 83 137 122 34 162 35 208 8z
m-252 -379 c138 -244 161 -290 145 -296 -31 -12 -342 165 -464 264 l-43 34 17
29 c10 16 22 29 29 29 15 0 36 -27 56 -72 22 -47 69 -61 102 -29 l21 21 -23
65 -22 65 26 51 26 51 32 -48 c18 -27 62 -101 98 -164z m-2354 -56 c15 -4 35
-13 44 -22 16 -13 16 -17 2 -44 -14 -27 -17 -29 -37 -15 -23 15 -67 74 -67 90
0 5 7 6 16 3 9 -3 28 -9 42 -12z m2041 -78 c53 -29 165 -89 249 -132 85 -43
150 -80 144 -82 -8 -2 -138 43 -551 193 -11 4 -5 15 19 40 19 19 36 35 38 35
2 0 47 -24 101 -54z m-1860 28 c17 -4 31 -10 31 -15 0 -10 -45 -34 -82 -43
-31 -7 -37 9 -18 45 12 21 21 22 69 13z m2330 -570 c20 -4 31 -12 31 -24 0
-20 15 -35 48 -45 18 -5 29 -1 47 19 12 13 21 27 18 30 -3 3 7 8 22 12 14 3
30 3 35 -2 14 -14 -21 -75 -54 -95 -38 -23 -113 -25 -144 -3 -26 18 -52 65
-52 94 0 22 3 23 49 14z"/>
</g>
</svg>
